<?xml version="1.0" encoding="utf-8"?>
<!-- Generator: Adobe Illustrator 22.1.0, SVG Export Plug-In . SVG Version: 6.00 Build 0)  -->
<svg version="1.1" id="Layer_1" xmlns="http://www.w3.org/2000/svg" xmlns:xlink="http://www.w3.org/1999/xlink" x="0px" y="0px"
	 viewBox="0 0 486.4 192.8" style="enable-background:new 0 0 486.4 192.8;" xml:space="preserve">
<g>
	<g>
		<path style="fill:#FFFFFF;" d="M408.1,95c0,21.8-3.6,39.7-10.7,53.6c-5.1,10-11.8,18.3-20.1,25.1l-28.2-50.4
			c2.1-7.7,3.1-17.4,3.1-29.1c0-17.5-3.4-30.4-10.3-38.5c-6.9-8.1-16.2-12.1-27.9-12.1c-3.1,0-6.1,0.3-8.9,1L282.4,4
			c9.6-2.6,20.2-4,31.8-4c30.1,0,53.3,8.3,69.5,25C400,41.6,408.1,65,408.1,95 M322.9,148.9c-2.6,0.5-5.4,0.7-8.4,0.7
			c-11.7,0-20.9-4.1-27.7-12.3c-6.8-8.2-10.2-21.7-10.2-40.6c0-10,0.9-18.4,2.8-25.4l-28.6-51c-1.9,1.6-3.7,3.3-5.5,5.1
			c-16.4,17-24.6,40.7-24.6,71.1c0,21.8,4.2,39.9,12.4,54.4c8.3,14.5,19.1,25.1,32.5,31.8c13.3,6.7,30.2,10.1,50.6,10.1
			c10.7,0,20.4-1.1,29.2-3.3L322.9,148.9z M430.8,137.2V3.4h55.6v185.3h-26.7L430.8,137.2z M118.3,96.8L66,3.4H0v47.5h40.2
			l40.8,73.2h37.2V96.8z M198.2,3.4v185.3h-45.5v-102l-26.3-47l20.3-36.3H198.2z M20,87.4H0v101.3h45.5v-56.1L20,87.4z"/>
	</g>
</g>
</svg>
